<?xml version="1.0" encoding="UTF-8"?>
<svg id="Layer_1" data-name="Layer 1" xmlns="http://www.w3.org/2000/svg" viewBox="0 0 580 580">
  <g>
    <path d="m261.26,418.34l-110.03,62.91c-3.11,1.78-6.93,1.76-10.02-.04l-84.24-49.11c-3.08-1.79-4.97-5.09-4.97-8.65v-132.79s114.21-65.3,114.21-65.3l-.45,132.03c-.01,3.59,1.9,6.91,5.01,8.71l90.49,52.24Z" style="fill: #124771;"/>
    <path d="m406.71,79.74l-102.51-59.18c-3.1-1.79-6.92-1.79-10.02,0L57.01,157.49c-3.1,1.79-5.01,5.1-5.01,8.68v124.49S406.69,88.43,406.69,88.43c3.36-1.92,3.37-6.76.02-8.69Z" style="fill: #076bb3;"/>
  </g>
  <path d="m173.76,500.97l102.51,59.18c3.1,1.79,6.92,1.79,10.02,0l237.17-136.93c3.1-1.79,5.01-5.1,5.01-8.68v-124.49l-354.69,202.22c-3.36,1.92-3.37,6.76-.02,8.69Z" style="fill: #097a7d;"/>
  <path d="m319.22,163.62l110.03-62.91c3.11-1.78,6.93-1.76,10.02.04l84.24,49.11c3.08,1.79,4.97,5.09,4.97,8.65v256.03c0,3.58-1.91,6.89-5.01,8.68l-109.64,63.3c.15-44,.3-88,.45-132,.15-43.32.29-86.63.44-129.95.01-3.59-1.9-6.91-5.01-8.71l-90.49-52.25Z" style="fill: #16a5a4;"/>
</svg>