<?xml version="1.0" encoding="UTF-8"?>
<svg id="Layer_1" data-name="Layer 1" xmlns="http://www.w3.org/2000/svg" viewBox="0 0 1649 405">
  <defs>
    <style>
      .cls-1 {
        fill: #097a7d;
      }

      .cls-2 {
        fill: #16a5a4;
      }

      .cls-3 {
        opacity: .86;
      }

      .cls-4 {
        fill: #124771;
      }

      .cls-5 {
        fill: #076bb3;
      }
    </style>
  </defs>
  <g>
    <path class="cls-5" d="m347.35,86.87h105.21v13.54h-45.32v133.3h-14.77V100.41h-45.12v-13.54Z"/>
    <path class="cls-5" d="m469.77,233.5V84.21h14.15v67.47c6.36-11.89,18.46-19.89,35.07-19.89,26.04,0,37.73,16.2,37.73,41.22v60.7h-14.15v-57.63c0-23.17-10.87-31.38-26.25-31.38-21.33,0-32.4,15.79-32.4,34.86v53.94h-14.15Z"/>
    <path class="cls-5" d="m581.53,96.71c0-5.74,4.72-10.66,10.46-10.66s10.66,4.92,10.66,10.66-4.92,10.46-10.66,10.46-10.46-4.72-10.46-10.46Zm3.49,37.73h14.15v99.26h-14.15v-99.26Z"/>
    <path class="cls-5" d="m628.7,233.71v-99.26h12.3l2.05,17.23c6.56-12.71,19.69-19.89,34.04-19.89,27.28,0,38.55,16.2,38.55,41.22v60.7h-14.15v-57.63c0-23.17-10.46-31.38-26.87-31.38-20.3,0-31.79,14.77-31.79,37.12v51.88h-14.15Z"/>
    <path class="cls-5" d="m783.73,131.78c17.23,0,30.35,8,36.71,22.56l1.44-19.89h12.3v96.18c0,29.53-18.87,48.81-47.99,48.81-25.43,0-43.27-14.36-47.17-38.35h14.15c3.08,16,15.38,25.43,33.22,25.43,20.3,0,33.84-13.74,33.84-34.45v-23.58c-6.77,13.95-20.51,22.15-37.53,22.15-28.3,0-45.53-22.35-45.53-49.42s17.43-49.42,46.55-49.42Zm1.03,86.13c21.53,0,34.25-15.59,34.25-36.91s-12.3-36.71-34.04-36.71-33.63,16.61-33.63,36.71,12.51,36.91,33.43,36.91Z"/>
    <path class="cls-2" d="m857.35,159.67c0-45.73,28.92-76.7,71.37-76.7,33.43,0,59.06,19.89,64.6,50.24h-21.53c-5.54-19.28-22.15-30.97-43.68-30.97-29.94,0-49.63,22.56-49.63,57.22s19.69,57.22,49.63,57.22c21.74,0,38.96-11.69,44.5-29.94h21.33c-6.36,29.53-32.81,49.22-66.24,49.22-42.25,0-70.34-30.35-70.34-76.29Z"/>
    <path class="cls-2" d="m1060.99,130.76c29.94,0,52.09,21.74,52.09,52.71s-22.15,52.71-52.09,52.71-52.29-21.74-52.29-52.71,22.15-52.71,52.29-52.71Zm0,88.18c19.28,0,32.81-14.56,32.81-35.48s-13.54-35.48-32.81-35.48-32.81,14.56-32.81,35.48,13.33,35.48,32.81,35.48Z"/>
    <path class="cls-2" d="m1134.4,233.71v-100.28h17.43l2.05,15.38c6.36-11.48,19.07-18.25,33.22-18.25,26.46,0,38.55,16.2,38.55,41.84v61.32h-19.28v-57.01c0-20.3-9.43-28.51-24.2-28.51-18.05,0-28.51,12.92-28.51,32.4v53.12h-19.28Z"/>
    <path class="cls-2" d="m1252.32,233.71v-100.28h17.43l2.05,15.38c6.36-11.48,19.07-18.25,33.22-18.25,26.46,0,38.55,16.2,38.55,41.84v61.32h-19.28v-57.01c0-20.3-9.43-28.51-24.2-28.51-18.05,0-28.51,12.92-28.51,32.4v53.12h-19.28Z"/>
    <path class="cls-2" d="m1363.67,183.67c0-31.38,19.89-53.12,49.01-53.12s47.17,19.69,47.17,49.42v7.18l-77.52.21c1.44,21.12,12.51,32.81,31.58,32.81,14.97,0,24.81-6.15,28.1-17.64h18.05c-4.92,21.53-21.74,33.63-46.55,33.63-29.53,0-49.83-21.33-49.83-52.5Zm19.07-9.23h57.83c0-16.61-10.87-27.69-27.89-27.69s-27.48,10.05-29.94,27.69Z"/>
    <path class="cls-2" d="m1524.03,130.55c25.22,0,42.86,14.36,46.35,36.71h-19.28c-3.28-12.71-13.54-19.48-26.46-19.48-18.25,0-30.76,13.95-30.76,35.68s11.69,35.48,29.94,35.48c13.74,0,23.99-7.18,27.48-19.07h19.28c-3.9,21.74-22.56,36.3-46.76,36.3-29.53,0-49.01-20.92-49.01-52.5s19.89-53.12,49.22-53.12Z"/>
    <path class="cls-2" d="m1599.91,233.71v-84.08h-19.69v-16.2h19.69v-31.38h19.28v31.38h19.69v16.2h-19.69v84.08h-19.28Z"/>
  </g>
  <g>
    <g>
      <path class="cls-4" d="m128.26,230.96l-61.13,34.95c-1.73.99-3.85.98-5.57-.02l-46.8-27.29c-1.71-1-2.76-2.83-2.76-4.81v-73.78s63.45-36.28,63.45-36.28l-.25,73.35c0,2,1.05,3.84,2.78,4.84l50.28,29.03Z"/>
      <path class="cls-5" d="m209.07,42.84l-56.95-32.88c-1.72-.99-3.84-.99-5.57,0L14.78,86.03c-1.72.99-2.78,2.83-2.78,4.82v69.17S209.06,47.66,209.06,47.66c1.87-1.06,1.87-3.75.01-4.83Z"/>
    </g>
    <path class="cls-1" d="m79.65,276.87l56.95,32.88c1.72.99,3.84.99,5.57,0l131.77-76.08c1.72-.99,2.78-2.83,2.78-4.82v-69.17l-197.06,112.36c-1.87,1.06-1.87,3.75-.01,4.83Z"/>
    <path class="cls-2" d="m160.46,89.44l61.13-34.95c1.73-.99,3.85-.98,5.57.02l46.8,27.29c1.71,1,2.76,2.83,2.76,4.81v142.25c0,1.99-1.06,3.83-2.78,4.82l-60.91,35.17c.08-24.45.17-48.89.25-73.34.08-24.07.16-48.13.24-72.2,0-2-1.05-3.84-2.78-4.84l-50.28-29.03Z"/>
  </g>
  <g class="cls-3">
    <path class="cls-5" d="m401.98,334.74v37.67h-10.21v-102.57h38.72c19.57,0,31.92,12.89,31.92,32.23s-12.48,32.66-31.92,32.66h-28.51Zm0-55.58v46.27h26.52c14.75,0,23.26-9.45,23.26-23.49s-8.65-22.78-22.7-22.78h-27.09Z"/>
    <path class="cls-5" d="m534.75,303.08v69.33h-8.51l-1.28-11.75c-3.83,8.02-13.33,13.46-24.11,13.46-16.17,0-24.96-11.17-24.96-28.08v-43.12h9.93v39.97c0,16.47,7.23,22.35,18.16,22.35,13.19,0,20.99-8.88,20.99-25.36v-36.82h9.79Z"/>
    <path class="cls-5" d="m555.88,372.41v-104.43h9.79v104.43h-9.79Z"/>
    <path class="cls-5" d="m590.35,352.93c0,8.02,5.96,13.04,15.6,13.04,10.64,0,16.88-4.58,16.88-12.03,0-5.73-2.84-9.02-10.92-11.03l-11.77-3.01c-11.92-3.01-17.73-9.31-17.73-18.77,0-12.18,10.07-19.91,24.82-19.91s23.83,8.02,24.26,20.92h-9.5c-.28-8.02-5.82-12.75-15.04-12.75s-15.04,4.15-15.04,11.6c0,5.3,3.69,9.02,11.21,10.89l11.77,3.01c11.92,3.01,17.31,8.59,17.31,18.62,0,12.46-10.5,20.63-26.1,20.63s-25.11-8.31-25.11-21.2h9.36Z"/>
    <path class="cls-5" d="m646.52,337.74c0-21.63,13.33-36.53,32.91-36.53s31.21,13.32,31.21,32.95v4.87h-54.61c.71,16.9,9.5,26.64,24.26,26.64,11.21,0,18.44-4.87,20.99-14.04h9.36c-3.69,14.61-14.33,22.49-30.5,22.49-20.14,0-33.62-14.61-33.62-36.38Zm9.79-5.87h44.54c0-13.32-8.51-22.2-21.42-22.2s-21.42,8.59-23.12,22.2Z"/>
  </g>
</svg>