<?xml version="1.0" encoding="UTF-8"?>
<svg id="Layer_1" data-name="Layer 1" xmlns="http://www.w3.org/2000/svg" viewBox="0 0 1649 317">
  <text transform="translate(344.88 233.71)" style="font-size: 205.07px;"><tspan x="0" y="0" style="fill: #076bb3; font-family: Satoshi-Regular, Satoshi;">Thing</tspan><tspan x="504.06" y="0" xml:space="preserve" style="fill: #16a5a4; font-family: Satoshi-Medium, Satoshi; font-weight: 500; letter-spacing: 0em;">Connect         </tspan></text>
  <g>
    <g>
      <path d="m128.26,230.96l-61.13,34.95c-1.73.99-3.85.98-5.57-.02l-46.8-27.29c-1.71-1-2.76-2.83-2.76-4.81v-73.78s63.45-36.28,63.45-36.28l-.25,73.35c0,2,1.05,3.84,2.78,4.84l50.28,29.03Z" style="fill: #124771;"/>
      <path d="m209.07,42.84l-56.95-32.88c-1.72-.99-3.84-.99-5.57,0L14.78,86.03c-1.72.99-2.78,2.83-2.78,4.82v69.17S209.06,47.66,209.06,47.66c1.87-1.06,1.87-3.75.01-4.83Z" style="fill: #076bb3;"/>
    </g>
    <path d="m79.65,276.87l56.95,32.88c1.72.99,3.84.99,5.57,0l131.77-76.08c1.72-.99,2.78-2.83,2.78-4.82v-69.17l-197.06,112.36c-1.87,1.06-1.87,3.75-.01,4.83Z" style="fill: #097a7d;"/>
    <path d="m160.46,89.44l61.13-34.95c1.73-.99,3.85-.98,5.57.02l46.8,27.29c1.71,1,2.76,2.83,2.76,4.81v142.25c0,1.99-1.06,3.83-2.78,4.82l-60.91,35.17c.08-24.45.17-48.89.25-73.34.08-24.07.16-48.13.24-72.2,0-2-1.05-3.84-2.78-4.84l-50.28-29.03Z" style="fill: #16a5a4;"/>
  </g>
</svg>